<svg xmlns="http://www.w3.org/2000/svg" xml:space="preserve" viewBox="0 0 6.35 6.35" width="24" height="24">
  <path fill="currentColor" d="M3.18.127a.252.252 0 0 0-.114.025.265.265 0 0 0-.171.252c0 .12.04.204.124.255.126.077.32.035.4-.088a.283.283 0 0 0-.12-.407.316.316 0 0 0-.12-.037Zm1.686.312a.197.197 0 0 0-.184.146c-.016.062.037.168.095.192.187.075.356-.14.223-.284A.17.17 0 0 0 4.866.44Zm.499.002c-.058 0-.14.086-.14.148a.17.17 0 0 0 .05.1c.059.059.126.062.195.007.052-.04.071-.137.037-.188-.022-.032-.095-.067-.142-.067Zm-3.91.001a.18.18 0 0 0-.173.152c-.01.054-.002.073.057.133.12.12.278.07.304-.093.01-.063.004-.08-.048-.133a.192.192 0 0 0-.14-.059zm-.49.001A.15.15 0 0 0 .87.49C.802.556.804.643.874.698c.101.08.23.017.23-.111 0-.092-.066-.148-.139-.144zM.814.98C.696.976.6 1.134.703 1.242c.057.061.16.065.217.008.06-.06.047-.19-.023-.241a.143.143 0 0 0-.083-.03zm4.698.004a.079.079 0 0 0-.023.004c-.128.045-.167.188-.073.262.133.105.324-.012.262-.16a.198.198 0 0 0-.166-.106Zm-3.564.347a1 1 0 0 0-.749.345.872.872 0 0 0-.24.619c0 .16.033.261.113.345.07.073.109.068.17-.023.085-.129.468-.5.62-.601.17-.113.393-.219.53-.252.144-.035.162-.058.127-.16-.06-.171-.275-.273-.571-.273Zm2.447 0a1.17 1.17 0 0 0-.269.03c-.183.054-.323.19-.323.314 0 .042.013.053.084.07.191.048.487.193.657.323.168.13.374.323.5.471a.813.813 0 0 0 .154.155c.038 0 .127-.096.158-.17a.834.834 0 0 0 .028-.425.865.865 0 0 0-.238-.42c-.222-.237-.459-.347-.751-.348Zm-1.24.577c-.095.001-.19.01-.28.025-.51.085-.876.271-1.213.618-.744.765-.852 1.837-.272 2.697.212.314.55.615.863.77.13.065.319.129.513.174.129.03.214.036.455.03.334-.009.488-.041.776-.166a2.25 2.25 0 0 0 1.318-1.737 2.078 2.078 0 0 0-.229-1.247c-.228-.425-.65-.82-1.057-.99a2.224 2.224 0 0 0-.873-.174Zm0 .372c.176 0 .366.024.51.07.326.102.544.237.781.485.225.235.38.516.465.846.037.145.042.203.033.435-.01.292-.057.481-.177.722a2.07 2.07 0 0 1-.614.698 2.197 2.197 0 0 1-.577.261 2.003 2.003 0 0 1-.355.05c-.816.032-1.592-.592-1.78-1.43a1.45 1.45 0 0 1-.023-.405c.012-.297.045-.445.153-.678.254-.549.686-.891 1.293-1.026.083-.018.184-.027.29-.028Zm.023.296c-.11 0-.166.156-.086.237.022.021.061.04.088.04.055 0 .13-.084.13-.146 0-.055-.077-.131-.132-.131zm.296.7a.17.17 0 0 0-.124.04c-.023.02-.11.148-.194.283-.166.267-.16.259-.442.55-.183.188-.195.205-.195.282 0 .061.013.095.049.13.058.06.175.066.248.016.027-.019.142-.123.255-.232l.242-.233a.12.12 0 0 0 .036-.071c0-.02.069-.143.153-.272.176-.272.192-.344.099-.437a.197.197 0 0 0-.127-.055zm1.02.643c-.112 0-.168.168-.08.24.06.047.103.046.167-.004a.121.121 0 0 0 .052-.098c0-.061-.077-.138-.139-.138zm-2.665.005a.112.112 0 0 0-.052.012c-.099.045-.101.2-.004.24.06.023.065.023.124-.004.097-.044.09-.192-.01-.234a.163.163 0 0 0-.058-.014zm1.342 1.35a.13.13 0 0 0-.066.029c-.068.054-.073.16-.008.205.062.044.108.039.164-.018.057-.057.062-.11.014-.164-.033-.04-.068-.057-.104-.053Z"/>
</svg>