<svg xmlns="http://www.w3.org/2000/svg" xml:space="preserve" viewBox="0 0 6.35 6.35" width="24" height="24">
  <path fill="currentColor" d="M3.685.142c-.058 0-.135 0-.236.002-.36.004-.414.008-.454.037-.102.074-.085.202.037.265.054.028.09.031.234.022a.596.596 0 0 1 .17 0c0 .013-.23.286-.389.463-.124.139-.135.255-.028.298.022.009.22.017.438.017.398.002.398.002.454-.046.072-.06.077-.147.012-.222-.043-.05-.05-.052-.257-.058a1.319 1.319 0 0 1-.212-.015c0-.005.111-.132.247-.284.21-.234.248-.285.248-.335a.136.136 0 0 0-.046-.103C3.868.15 3.859.143 3.685.142ZM2.62.482a1.643 1.643 0 0 0-.21.046c-.128.032-.302.072-.387.09-.194.04-.259.087-.259.19 0 .055.012.079.057.117A.214.214 0 0 0 1.9.972c.012 0 .107-.02.212-.046a1.09 1.09 0 0 1 .2-.038c.008.009-.142.262-.296.5a.953.953 0 0 0-.096.178c-.014.058.029.134.09.158l.042.018c.004.002.686-.162.765-.184.147-.04.187-.158.088-.257-.065-.064-.114-.067-.322-.018a.715.715 0 0 1-.16.027 1.526 1.526 0 0 1 .142-.26c.223-.366.239-.398.218-.457a.201.201 0 0 0-.08-.086C2.674.489 2.658.48 2.622.483zm1.602.033c-.05-.001-.065.008-.098.041-.035.036-.047.066-.047.122 0 .063.008.08.055.108.03.019.138.048.239.066a.94.94 0 0 1 .183.042c0 .012.022-.007-.318.267-.148.12-.278.233-.288.252-.023.044-.007.116.035.154.02.018.157.05.36.084.182.031.338.06.348.064.01.004.057.007.103.008.165.003.24-.144.131-.254-.043-.043-.076-.054-.227-.074-.21-.028-.244-.043-.188-.082.021-.015.128-.099.237-.186.109-.087.218-.17.242-.187.049-.031.097-.113.097-.164a.184.184 0 0 0-.041-.084C5.008.645 4.979.636 4.702.585A7.256 7.256 0 0 0 4.286.52a.948.948 0 0 0-.063-.004zm-.944 1.427c-.442-.001-.73.158-.934.517-.159.278-.276.403-.705.752-.262.214-.38.375-.485.67a1.5 1.5 0 0 0-.081.611c.013.239.06.414.171.635A1.97 1.97 0 0 0 2.793 6.2c.354.035.692-.04.927-.208.14-.1.208-.175.358-.395.149-.217.3-.369.573-.575.254-.191.409-.354.496-.522.117-.225.133-.297.132-.592a1.46 1.46 0 0 0-.163-.743c-.339-.71-1.106-1.22-1.837-1.223Zm-.009.342c.116 0 .24.014.349.043.315.085.676.305.893.542.295.325.452.693.452 1.058 0 .337-.104.506-.499.814-.32.25-.449.38-.622.627-.192.274-.315.372-.561.447a1.55 1.55 0 0 1-.627.01 1.567 1.567 0 0 1-1.167-.988c-.12-.31-.108-.671.03-.963.087-.183.146-.252.363-.426.349-.279.481-.422.7-.757.154-.234.22-.296.393-.364a.855.855 0 0 1 .296-.043zm.054.277c-.205-.001-.215 0-.302.054-.068.042-.118.098-.202.224a3.107 3.107 0 0 1-.143.203c-.017.019-.03.04-.03.048 0 .042.392-.064.556-.15.134-.07.395-.26.42-.307.027-.047-.07-.07-.3-.072zm.792.301c-.008 0-.125.076-.26.169-.599.41-.698.451-1.196.5a3.54 3.54 0 0 0-.385.057.832.832 0 0 0-.392.218.97.97 0 0 0-.172.862c.02.067.045.121.054.121.017 0 .155-.123.395-.351.456-.435.695-.563 1.219-.648.402-.065.542-.13.776-.355.151-.146.242-.28.226-.333-.012-.036-.236-.24-.265-.24Zm.53.723c-.01 0-.022.011-.037.03a2.695 2.695 0 0 1-.378.36c-.136.094-.302.148-.617.199-.514.083-.623.14-1.107.579-.14.126-.307.273-.373.327a1.086 1.086 0 0 0-.126.113c-.007.019.184.166.28.217.04.02.081.039.09.04.043.001.267-.186.434-.366.396-.425.62-.535 1.163-.57.241-.015.284-.022.386-.07a.762.762 0 0 0 .179-.118.671.671 0 0 0 .162-.578c-.02-.116-.033-.163-.056-.163ZM3.81 4.94a.13.13 0 0 0-.038.004c-.168.03-.331.13-.544.336a1.803 1.803 0 0 1-.293.24.316.316 0 0 0-.087.053c0 .005.072.006.16.001.306-.016.429-.095.681-.436.115-.155.143-.194.12-.198Z"/>
</svg>