<svg xmlns="http://www.w3.org/2000/svg" viewBox="0 0 24 24">
  <path fill="currentColor" d="M13.927.536c-.22 0-.508.003-.892.007-1.36.015-1.563.031-1.716.142-.386.28-.32.762.14 1 .204.106.342.119.883.082.353-.024.642-.022.642.003 0 .046-.868 1.08-1.466 1.748-.471.525-.513.964-.107 1.127.083.034.827.063 1.654.066 1.503.004 1.503.004 1.717-.176.271-.228.29-.556.046-.84-.163-.189-.189-.195-.971-.217-.442-.013-.804-.038-.804-.056 0-.019.422-.502.937-1.075.795-.885.936-1.076.936-1.267a.514.514 0 0 0-.175-.39c-.13-.122-.166-.153-.824-.154zM9.905 1.824c-.14.01-.358.064-.796.172a50.71 50.71 0 0 1-1.46.338c-.73.151-.977.332-.977.717 0 .21.044.301.214.444.117.099.25.18.295.18.044 0 .405-.079.802-.175.397-.096.735-.16.753-.143.031.031-.534.988-1.117 1.889-.172.267-.335.57-.36.672-.055.219.106.507.336.6l.162.065c.015.007 2.593-.612 2.89-.694.554-.152.705-.597.33-.971-.242-.243-.43-.254-1.216-.067-.304.072-.574.118-.6.102-.025-.016.215-.458.534-.983.844-1.386.901-1.507.823-1.73-.037-.104-.171-.25-.3-.324-.117-.068-.175-.102-.313-.092Zm6.055.122c-.188-.005-.245.032-.37.156-.133.134-.178.25-.178.46 0 .24.031.302.209.41.115.07.52.182.901.249s.693.138.693.158c0 .044.082-.025-1.203 1.01-.558.45-1.047.878-1.087.952-.088.165-.026.438.132.581.074.067.595.189 1.364.32a32.83 32.83 0 0 1 1.314.238c.038.015.213.03.389.033.62.01.908-.546.494-.96-.164-.164-.286-.204-.858-.28-.792-.105-.922-.162-.71-.311.08-.057.484-.373.895-.701.412-.329.823-.647.915-.706.184-.121.366-.431.366-.623 0-.068-.07-.212-.156-.318-.143-.178-.25-.211-1.3-.402a27.423 27.423 0 0 0-1.572-.249 3.599 3.599 0 0 0-.238-.017zM12.394 7.34c-1.67-.005-2.758.596-3.532 1.952-.6 1.051-1.041 1.523-2.662 2.842-.993.809-1.435 1.419-1.835 2.533-.258.72-.355 1.45-.307 2.31.05.903.23 1.565.648 2.4 1.126 2.249 3.37 3.804 5.85 4.053 1.34.135 2.616-.151 3.504-.785.526-.376.786-.661 1.354-1.491.562-.821 1.133-1.395 2.164-2.172.962-.726 1.545-1.34 1.875-1.976.441-.851.501-1.12.5-2.235 0-1.184-.135-1.797-.618-2.809-1.28-2.681-4.18-4.613-6.94-4.622zm-.034 1.29c.438 0 .907.056 1.317.166 1.19.32 2.556 1.15 3.374 2.048 1.116 1.226 1.712 2.618 1.71 3.996-.002 1.274-.393 1.913-1.885 3.08-1.208.943-1.697 1.437-2.35 2.368-.726 1.037-1.19 1.407-2.122 1.69-.559.17-1.688.19-2.368.04-2.1-.464-3.655-1.78-4.41-3.738-.452-1.17-.41-2.536.112-3.638.328-.695.55-.955 1.373-1.612 1.316-1.052 1.817-1.592 2.646-2.86.58-.883.833-1.119 1.483-1.375.279-.11.683-.165 1.12-.165Zm.203 1.048c-.776-.005-.814.002-1.142.205-.256.158-.445.368-.763.848-.233.35-.476.696-.54.767-.064.07-.116.152-.116.18 0 .16 1.486-.24 2.103-.565.506-.266 1.493-.987 1.591-1.163.1-.178-.27-.267-1.133-.272zm2.994 1.14c-.03 0-.472.286-.984.636-2.261 1.548-2.638 1.706-4.518 1.893-.562.056-1.218.152-1.457.214-.595.153-1.195.486-1.483.822-.704.823-.977 2.194-.648 3.26.078.251.17.457.206.457.064 0 .585-.465 1.49-1.329 1.722-1.644 2.628-2.125 4.607-2.446 1.522-.248 2.051-.49 2.934-1.342.572-.552.916-1.061.853-1.26-.044-.138-.892-.905-1-.905zm2.003 2.732c-.039.001-.084.041-.141.111-.31.383-1.092 1.13-1.426 1.36-.517.358-1.144.56-2.336.753-1.94.314-2.352.53-4.182 2.189a50.375 50.375 0 0 1-1.41 1.238c-.251.205-.466.397-.477.426-.027.07.696.627 1.061.818.153.08.305.147.338.149.165.009 1.009-.701 1.64-1.379 1.499-1.609 2.344-2.022 4.397-2.153.91-.057 1.072-.087 1.458-.267a2.88 2.88 0 0 0 .677-.447c.515-.514.752-1.36.614-2.182-.074-.439-.128-.62-.213-.616zm-3.16 5.12a.487.487 0 0 0-.145.015c-.632.112-1.25.494-2.056 1.27-.439.422-.919.816-1.105.907-.181.088-.33.178-.33.2 0 .02.274.023.607.005 1.156-.063 1.62-.36 2.572-1.648.433-.586.541-.732.456-.749z"/>
</svg>