<svg xmlns="http://www.w3.org/2000/svg" viewBox="0 0 24 24">
  <path fill="currentColor" d="M7.259.51c-.216 0-.686.513-.9.98-.15.326-.172.467-.15.94.022.502.05.595.284.94.352.52.417.66.417.894 0 .2-.189.573-.425.841-.208.236-.233.493-.067.704.331.421.888.156 1.268-.604.397-.794.362-1.311-.14-2.084-.153-.235-.297-.529-.32-.653-.05-.262.098-.66.36-.972.103-.122.179-.302.179-.424 0-.252-.279-.561-.506-.561zm10.329 0c-.221 0-.62.418-.854.893-.204.414-.22.502-.197 1.018.023.512.05.602.284.948.552.815.558.995.054 1.63-.282.355-.318.57-.134.804.342.435.912.137 1.315-.688.369-.753.335-1.213-.142-1.938-.175-.267-.338-.593-.363-.725-.053-.282.115-.71.373-.952.244-.229.235-.643-.018-.841-.104-.082-.247-.148-.318-.148Zm-5.214.043a.667.667 0 0 0-.427.249c-.395.46-.584.967-.583 1.56.001.555.026.623.503 1.39.246.394.203.767-.14 1.234-.29.396-.325.658-.116.867a.566.566 0 0 0 .384.143c.192 0 .295-.06.507-.294.449-.498.684-1.225.577-1.791-.025-.135-.186-.466-.358-.736-.439-.689-.457-1.048-.077-1.546.282-.37.32-.66.118-.908a.432.432 0 0 0-.388-.168ZM9.763.555c-.18.011-.345.15-.57.463-.313.431-.45.918-.419 1.482.024.417.066.54.32.938.16.251.313.545.338.652.052.224-.09.612-.348.949-.256.336-.285.538-.107.764.215.273.558.265.843-.021.46-.46.738-1.333.623-1.95-.026-.137-.182-.451-.348-.698-.255-.384-.3-.505-.3-.817 0-.306.038-.414.228-.65.405-.504.377-.925-.072-1.081a.48.48 0 0 0-.188-.03zm5.186.027c-.24 0-.302.038-.497.303-.681.925-.733 1.729-.166 2.592.415.631.42.864.032 1.478-.327.518-.34.596-.137.853.215.274.542.256.83-.043.49-.508.753-1.37.597-1.95-.043-.158-.21-.486-.372-.727-.272-.405-.292-.466-.263-.819a1.05 1.05 0 0 1 .27-.676c.405-.505.258-1.01-.294-1.01ZM12.89 7.376c-.893-.002-1.751.163-2.477.507-.806.383-1.353.978-1.96 2.134-.268.508-.603 1.1-.746 1.318-.247.375-1.071 1.234-2.335 2.435-.637.605-.97 1.154-1.25 2.056-.212.687-.227 2.118-.03 2.849.3 1.12.83 2.036 1.674 2.9.988 1.01 2.238 1.647 3.673 1.87.235.036.876.054 1.424.039 1.547-.042 2.628-.37 3.584-1.088.518-.39.921-.88 1.47-1.79.68-1.129 1.011-1.55 1.72-2.182 1.99-1.776 2.402-2.518 2.41-4.343.005-1.29-.256-2.214-.936-3.306-.4-.641-1.307-1.61-1.916-2.045-1.23-.879-2.816-1.349-4.305-1.353Zm-.047 1.281c.848.015 2.095.313 2.864.704.725.369 1.618 1.134 2.14 1.835.753 1.009 1.137 2.691.86 3.768-.166.643-.43 1.09-.93 1.566l-1.1 1.047c-.73.694-1.218 1.312-1.758 2.228-.668 1.133-1.388 1.752-2.465 2.122-1.315.452-3.29.289-4.558-.378-1.822-.958-2.985-3.22-2.599-5.058.202-.961.377-1.221 1.723-2.553 1.35-1.336 1.653-1.725 2.344-3.021.258-.484.553-.98.656-1.102.509-.608 1.463-1.048 2.487-1.147.102-.01.215-.013.336-.01zm-.054 1.047c-.063-.004-.168.008-.336.027-.844.096-1.463.514-1.833 1.24-.08.157-.179.307-.218.331-.04.025-.073.075-.073.112 0 .105.933.078 1.323-.038.193-.057.457-.201.586-.32.231-.211.523-.765.616-1.17.03-.128.04-.176-.065-.182zm1.869.311c-.098-.007-.135.094-.258.58-.478 1.89-1.187 2.375-3.481 2.38-.283.001-.762.056-1.064.122-.549.121-.549.12-1.752 1.272-1.265 1.21-1.545 1.552-1.737 2.13-.128.384-.164 1.026-.076 1.346.057.203.057.203.641-.358 1.987-1.904 2.871-2.38 5.006-2.696.63-.093 1.326-.236 1.548-.32.488-.182 1.15-.658 1.46-1.048.336-.425.704-1.249.9-2.015.172-.675.172-.675.017-.8-.17-.138-.924-.518-1.158-.583a.234.234 0 0 0-.046-.01zm2.726 2.392c-.03 0-.077.104-.102.231-.026.128-.198.536-.383.908a4.45 4.45 0 0 1-.853 1.22c-.807.846-1.416 1.106-3.33 1.42-1.69.278-2.415.611-3.575 1.643l-1.272 1.13c-.762.674-.762.674-.377 1.032.212.197.575.46.807.583.422.226.422.226.923-.123.518-.36.604-.435 1.756-1.53 1.21-1.15 2.244-1.682 3.611-1.858.937-.12 1.352-.278 1.91-.727.842-.677 1.246-1.451 1.253-2.401.003-.57-.227-1.528-.368-1.528zm-3.138 6.21c-.08-.013-.357.074-.612.194-.374.174-.623.378-1.262 1.031-.503.515-.947.897-1.206 1.041-.225.125-.41.24-.41.256 0 .059.405.024.865-.073.981-.208 1.786-.825 2.422-1.857.325-.526.34-.571.203-.593z"/>
</svg>