<svg xmlns="http://www.w3.org/2000/svg" xml:space="preserve" viewBox="0 0 300 300">
  <path fill="currentColor" d="M171.76 20.523c-2.478-.003-5.736.031-10.076.078-15.364.165-17.643.354-19.371 1.603-4.37 3.16-3.614 8.607 1.567 11.293 2.311 1.199 3.877 1.345 9.987.932 3.986-.269 7.247-.255 7.247.03 0 .524-9.8 12.208-16.558 19.741-5.32 5.932-5.793 10.886-1.213 12.732.94.379 9.35.712 18.689.739 16.978.05 16.978.05 19.388-1.979 3.067-2.58 3.27-6.284.522-9.483-1.838-2.138-2.135-2.205-10.968-2.461-4.993-.145-9.077-.43-9.077-.635 0-.205 4.759-5.668 10.575-12.141 8.982-9.996 10.576-12.153 10.576-14.309 0-1.7-.652-3.15-1.976-4.394-1.476-1.387-1.88-1.736-9.313-1.746zm-45.427 14.54c-1.566.112-4.04.723-8.987 1.944-5.441 1.344-12.861 3.06-16.489 3.814-8.251 1.716-11.03 3.757-11.03 8.099 0 2.381.493 3.408 2.41 5.021 1.326 1.116 2.824 2.028 3.33 2.027.505 0 4.584-.888 9.063-1.973 4.48-1.085 8.305-1.813 8.501-1.617.359.358-6.024 11.162-12.607 21.339-1.952 3.017-3.787 6.43-4.076 7.584-.621 2.475 1.208 5.733 3.805 6.78.944.38 1.765.713 1.825.74.17.077 29.288-6.914 32.641-7.837 6.254-1.72 7.965-6.747 3.737-10.975-2.746-2.745-4.862-2.86-13.746-.755-3.434.813-6.481 1.331-6.772 1.152-.29-.18 2.424-5.175 6.032-11.102 9.53-15.658 10.175-17.016 9.287-19.543-.41-1.165-1.932-2.81-3.382-3.657-1.317-.77-1.975-1.154-3.542-1.042zm68.39 1.38c-2.116-.056-2.767.363-4.168 1.764-1.512 1.512-2.024 2.829-2.024 5.205 0 2.698.358 3.399 2.364 4.619 1.3.79 5.883 2.055 10.184 2.81 4.3.756 7.82 1.563 7.82 1.794 0 .492.928-.288-13.58 11.4-6.31 5.082-11.836 9.923-12.282 10.756-.999 1.865-.298 4.94 1.495 6.563.83.751 6.714 2.129 15.4 3.607 7.733 1.315 14.411 2.529 14.842 2.697.43.168 2.406.333 4.39.367 7.015.12 10.258-6.17 5.587-10.84-1.858-1.858-3.229-2.306-9.691-3.16-8.947-1.185-10.42-1.83-8.026-3.515.913-.644 5.466-4.208 10.116-7.921 4.65-3.713 9.295-7.302 10.325-7.976 2.082-1.364 4.143-4.865 4.137-7.026-.002-.775-.796-2.395-1.763-3.598-1.614-2.01-2.823-2.383-14.683-4.543-7.11-1.295-15.1-2.559-17.756-2.81-1.114-.104-1.981-.175-2.687-.193zM154.455 97.38c-18.873-.06-31.155 6.725-39.892 22.041-6.773 11.875-11.763 17.202-30.068 32.105-11.22 9.135-16.21 16.024-20.725 28.606-2.92 8.136-4.016 16.38-3.47 26.093.573 10.192 2.592 17.672 7.316 27.107 12.716 25.396 38.07 42.96 66.08 45.776 15.123 1.52 29.54-1.712 39.573-8.87 5.942-4.24 8.87-7.465 15.287-16.84 6.348-9.275 12.798-15.75 24.448-24.535 10.864-8.194 17.444-15.128 21.169-22.31 4.988-9.619 5.668-12.652 5.662-25.246-.006-13.373-1.531-20.301-6.986-31.726-14.458-30.284-47.222-52.1-78.394-52.2zm-.386 14.567c4.94.002 10.246.627 14.87 1.873 13.445 3.623 28.876 12.99 38.115 23.137 12.603 13.843 19.33 29.567 19.31 45.133-.018 14.39-4.436 21.603-21.293 34.778-13.64 10.66-19.166 16.23-26.534 26.747-8.205 11.712-13.45 15.89-23.969 19.093-6.314 1.923-19.073 2.134-26.747.442-23.721-5.229-41.279-20.105-49.816-42.208-5.101-13.208-4.626-28.641 1.265-41.091 3.713-7.847 6.217-10.789 15.513-18.214 14.868-11.874 20.52-17.98 29.889-32.287 6.536-9.982 9.403-12.643 16.744-15.542 3.146-1.243 7.715-1.863 12.653-1.86zm2.288 11.835c-8.762-.05-9.193.027-12.901 2.316-2.883 1.78-5.024 4.16-8.617 9.577-2.63 3.964-5.373 7.86-6.096 8.66-.723.798-1.314 1.72-1.314 2.047 0 1.789 16.785-2.727 23.76-6.393 5.715-3.002 16.855-11.147 17.968-13.136 1.126-2.012-3.056-3.015-12.8-3.071zm33.822 12.873c-.337 0-5.339 3.236-11.117 7.191-25.54 17.482-29.8 19.267-51.033 21.38-6.349.63-13.751 1.717-16.45 2.414-6.723 1.733-13.502 5.489-16.747 9.279-7.959 9.298-11.04 24.785-7.324 36.815.879 2.846 1.925 5.175 2.323 5.175.725 0 6.614-5.251 16.839-15.013 19.448-18.567 29.677-24 52.028-27.632 17.187-2.793 23.167-5.529 33.138-15.155 6.457-6.233 10.346-11.982 9.631-14.235-.492-1.55-10.068-10.219-11.288-10.219zm22.617 30.862c-.439.015-.953.461-1.595 1.256-3.492 4.325-12.326 12.752-16.106 15.365-5.838 4.035-12.918 6.316-26.374 8.494-21.92 3.548-26.57 5.981-47.242 24.722-5.933 5.378-13.103 11.672-15.932 13.984-2.83 2.313-5.25 4.482-5.38 4.82-.3.782 7.861 7.071 11.986 9.236 1.724.905 3.442 1.663 3.818 1.68 1.861.095 11.392-7.919 18.525-15.575 16.925-18.168 26.471-22.842 49.661-24.312 10.283-.652 12.11-.987 16.461-3.023 2.692-1.26 6.135-3.53 7.652-5.046 5.81-5.81 8.497-15.365 6.93-24.649-.834-4.949-1.44-6.988-2.404-6.952zm-35.698 57.824c-.32-.063-.881.037-1.63.17-7.137 1.266-14.119 5.578-23.218 14.337-4.955 4.77-10.38 9.225-12.483 10.253-2.047 1-3.721 2.013-3.721 2.25 0 .238 3.084.266 6.854.06 13.047-.71 18.283-4.067 29.043-18.616 4.89-6.612 6.113-8.265 5.155-8.454z"/>
</svg>
