<svg xmlns="http://www.w3.org/2000/svg" xml:space="preserve" viewBox="0 0 6.35 6.35" width="24" height="24">
  <path fill="currentColor" d="M1.92.135c-.057 0-.181.136-.238.26-.04.086-.045.123-.04.248.007.133.014.157.076.248.093.138.11.175.11.237 0 .053-.05.152-.112.223-.055.062-.062.13-.018.186.088.111.235.041.336-.16.105-.21.095-.347-.037-.551a.678.678 0 0 1-.085-.173c-.013-.07.026-.175.095-.257a.201.201 0 0 0 .047-.112c0-.067-.073-.149-.134-.149zm2.733 0c-.058 0-.164.11-.226.236-.053.11-.058.133-.052.27.006.135.014.159.076.25.146.216.147.264.014.432-.075.094-.084.15-.036.212.091.115.242.037.348-.182.098-.199.089-.32-.037-.513A.762.762 0 0 1 4.644.65c-.014-.075.03-.188.099-.252.064-.06.061-.17-.005-.223a.18.18 0 0 0-.085-.039ZM3.274.146a.177.177 0 0 0-.113.066.607.607 0 0 0-.154.413c0 .147.007.165.133.368.065.104.054.203-.037.326-.077.105-.086.174-.03.23a.15.15 0 0 0 .1.037c.051 0 .079-.015.135-.077a.595.595 0 0 0 .153-.474.796.796 0 0 0-.095-.195C3.25.658 3.245.563 3.346.431c.074-.098.084-.174.03-.24a.114.114 0 0 0-.102-.045Zm-.691 0c-.048.004-.091.04-.15.123a.587.587 0 0 0-.112.392c.007.11.018.144.085.249a.841.841 0 0 1 .09.172c.013.06-.024.162-.092.251-.068.09-.076.143-.029.202.057.073.148.07.223-.005a.65.65 0 0 0 .165-.516.696.696 0 0 0-.092-.185c-.068-.101-.08-.133-.08-.216 0-.08.01-.11.06-.172.108-.133.1-.245-.018-.286a.127.127 0 0 0-.05-.008zm1.372.008c-.063 0-.08.01-.131.08-.18.245-.194.458-.044.686.11.167.111.228.008.391-.086.137-.09.158-.036.226.057.072.144.067.22-.012.13-.134.199-.362.158-.515A.85.85 0 0 0 4.03.817C3.96.71 3.954.694 3.961.6a.278.278 0 0 1 .072-.179C4.14.288 4.1.154 3.955.154Zm-.544 1.798c-.237-.001-.464.043-.656.134-.213.101-.358.259-.519.564-.07.135-.16.292-.197.35-.065.098-.283.326-.618.643a1.13 1.13 0 0 0-.33.544c-.056.182-.06.56-.008.754.08.296.22.539.443.767a1.7 1.7 0 0 0 .971.495c.063.01.232.014.377.01.41-.01.696-.097.948-.287.138-.103.244-.233.39-.474.18-.299.267-.41.454-.577.527-.47.636-.667.638-1.15a1.494 1.494 0 0 0-.248-.874 2.37 2.37 0 0 0-.506-.541 2.015 2.015 0 0 0-1.14-.358Zm-.013.339c.224.004.554.082.758.186.192.097.428.3.566.485.2.267.3.712.228.997a.804.804 0 0 1-.246.414l-.291.278a2.49 2.49 0 0 0-.466.59c-.176.299-.367.463-.652.56-.348.12-.87.077-1.206-.1-.482-.253-.79-.851-.687-1.338.053-.254.1-.323.455-.675.358-.354.438-.457.62-.8a2.7 2.7 0 0 1 .174-.291c.135-.16.387-.277.658-.303a.778.778 0 0 1 .09-.003zm-.014.277c-.017-.001-.045.002-.09.007a.587.587 0 0 0-.484.328.335.335 0 0 1-.058.087c-.01.007-.02.02-.02.03 0 .028.248.02.35-.01a.472.472 0 0 0 .156-.085.735.735 0 0 0 .163-.31c.008-.033.01-.046-.017-.047zm.494.082c-.026-.002-.035.025-.068.153-.127.5-.314.629-.921.63-.075 0-.202.015-.281.032-.146.032-.146.032-.464.337-.335.32-.409.41-.46.563a.762.762 0 0 0-.02.356c.015.054.015.054.17-.094.526-.504.76-.63 1.324-.713.167-.025.351-.063.41-.085.13-.048.304-.174.386-.278.089-.112.186-.33.238-.533.046-.178.046-.178.005-.211a1.599 1.599 0 0 0-.319-.157zm.722.633c-.009 0-.02.027-.028.06a1.563 1.563 0 0 1-.1.241 1.177 1.177 0 0 1-.227.323c-.213.224-.374.292-.88.376-.448.073-.64.161-.946.434l-.337.299c-.202.179-.202.179-.1.273.056.052.152.122.214.155.111.06.111.06.244-.033.137-.095.16-.115.465-.405.32-.304.593-.445.955-.491.248-.032.358-.074.505-.193.223-.179.33-.384.332-.635 0-.15-.06-.404-.097-.404Zm-.83 1.643a.472.472 0 0 0-.163.051c-.099.046-.164.1-.334.273-.133.136-.25.237-.319.275a.653.653 0 0 0-.108.068c0 .016.107.006.229-.02.26-.054.472-.218.64-.49.086-.14.09-.152.054-.157z"/>
</svg>