<svg xmlns="http://www.w3.org/2000/svg" viewBox="0 0 24 24">
  <path fill="currentColor" d="M12.017.48a.952.952 0 0 0-.43.094c-.409.171-.647.522-.647.953 0 .455.155.772.47.964.478.291 1.208.13 1.512-.332.346-.528.133-1.255-.451-1.537-.182-.088-.32-.135-.454-.142Zm6.375 1.18a.745.745 0 0 0-.697.552c-.059.234.141.635.361.723.707.285 1.343-.527.84-1.07a.645.645 0 0 0-.504-.204zm1.883.006c-.218 0-.524.327-.524.56 0 .107.083.276.183.377.224.224.48.234.74.029.197-.155.269-.52.14-.712-.082-.123-.36-.254-.539-.254ZM5.5 1.671a.678.678 0 0 0-.653.573c-.04.207-.01.278.216.504.45.45 1.05.267 1.148-.35.038-.239.013-.308-.183-.504a.725.725 0 0 0-.528-.223Zm-1.85.004a.566.566 0 0 0-.366.175c-.252.252-.244.58.021.787.383.301.871.066.871-.42 0-.346-.253-.559-.527-.542zm-.573 2.024c-.444-.01-.804.586-.42.995.218.232.605.246.821.03.225-.225.177-.714-.088-.911a.541.541 0 0 0-.313-.114Zm17.758.016a.298.298 0 0 0-.09.017c-.48.17-.63.71-.273.99.502.396 1.223-.047.99-.608-.09-.219-.403-.407-.627-.399ZM7.361 5.028c-1.073.003-2.05.453-2.828 1.303-.618.677-.91 1.425-.91 2.338 0 .606.125.988.428 1.304.267.278.413.259.64-.085.323-.488 1.773-1.891 2.348-2.273.643-.426 1.485-.826 2-.95.546-.132.616-.221.48-.609-.225-.644-1.037-1.03-2.158-1.028Zm9.249 0c-.354 0-.807.048-1.015.11-.693.206-1.22.719-1.22 1.188 0 .159.05.2.317.267.721.179 1.839.729 2.483 1.221a13.765 13.765 0 0 1 1.891 1.78c.274.321.535.585.58.585.144 0 .481-.362.598-.64.165-.397.214-1.144.104-1.61-.141-.6-.396-1.05-.898-1.587-.84-.897-1.735-1.311-2.84-1.314Zm-4.682 2.18a7.002 7.002 0 0 0-1.064.093c-1.926.322-3.309 1.026-4.582 2.335-2.813 2.892-3.222 6.944-1.028 10.195.8 1.187 2.075 2.325 3.26 2.91.492.245 1.206.487 1.94.66.486.114.809.135 1.718.112 1.265-.033 1.846-.157 2.934-.626 2.652-1.145 4.543-3.637 4.984-6.567.228-1.52-.094-3.277-.866-4.714-.862-1.606-2.457-3.097-3.997-3.74a8.405 8.405 0 0 0-3.3-.658Zm-.006 1.407c.667-.002 1.385.09 1.93.26 1.232.388 2.056.9 2.952 1.836.85.887 1.435 1.952 1.757 3.198.141.547.158.768.127 1.643-.04 1.103-.217 1.819-.671 2.728-.47.939-1.423 2.023-2.321 2.642-.536.368-1.518.812-2.18.984a7.569 7.569 0 0 1-1.343.186c-3.081.123-6.017-2.235-6.727-5.403-.093-.416-.114-.78-.085-1.53.042-1.124.167-1.68.576-2.563.96-2.073 2.593-3.368 4.886-3.875a5.3 5.3 0 0 1 1.099-.106zm.088 1.116c-.412 0-.626.593-.323.896a.55.55 0 0 0 .331.149c.208 0 .49-.315.49-.547 0-.21-.287-.498-.498-.498zm1.122 2.65a.639.639 0 0 0-.47.147c-.088.078-.418.56-.735 1.07-.627 1.008-.604.98-1.67 2.08-.69.711-.735.776-.735 1.067 0 .23.048.358.183.493.221.221.661.248.94.056.1-.07.534-.464.961-.877l.915-.88a.45.45 0 0 0 .137-.27c0-.075.26-.537.576-1.026.667-1.027.728-1.299.374-1.653a.745.745 0 0 0-.476-.207zm3.855 2.427c-.426 0-.637.635-.301.908.22.178.386.174.629-.017a.46.46 0 0 0 .197-.368c0-.232-.293-.523-.525-.523zm-10.076.018a.425.425 0 0 0-.194.045c-.374.17-.383.757-.015.905.227.091.245.09.466-.01.368-.168.344-.726-.038-.884a.616.616 0 0 0-.219-.056zm5.074 5.1a.49.49 0 0 0-.249.113c-.259.204-.276.605-.032.776.234.163.41.145.621-.067.217-.216.233-.415.053-.624-.126-.146-.257-.212-.393-.198z"/>
</svg>