<svg xmlns="http://www.w3.org/2000/svg" xml:space="preserve" viewBox="0 0 300 300">
  <path fill="currentColor" d="M150.197 19.884c-1.513-.082-2.983.28-4.854 1.062-4.622 1.931-7.312 5.891-7.312 10.763 0 5.136 1.747 8.717 5.312 10.89 5.39 3.287 13.642 1.47 17.067-3.756 3.907-5.964 1.501-14.169-5.09-17.36-2.05-.993-3.61-1.518-5.123-1.6zm71.994 13.337c-3.462.125-6.921 2.443-7.871 6.23-.664 2.642 1.598 7.163 4.085 8.164 7.976 3.212 15.167-5.96 9.482-12.095-1.539-1.66-3.618-2.374-5.696-2.3zm21.275.069c-2.466 0-5.92 3.69-5.92 6.325 0 1.202.93 3.116 2.07 4.255 2.529 2.53 5.41 2.64 8.358.32 2.22-1.745 3.028-5.861 1.577-8.034-.926-1.387-4.068-2.866-6.085-2.866zm-166.887.053c-3.426.062-6.61 2.43-7.384 6.465-.45 2.338-.102 3.143 2.447 5.692 5.084 5.084 11.859 3.02 12.968-3.95.43-2.698.148-3.472-2.072-5.692-1.761-1.762-3.904-2.553-5.96-2.515zm-20.906.044c-1.407.088-2.864.71-4.125 1.972-2.851 2.852-2.752 6.546.238 8.898 4.32 3.398 9.838.74 9.838-4.74 0-3.918-2.856-6.322-5.951-6.13zm-6.462 22.858c-5.016-.115-9.089 6.625-4.75 11.243 2.461 2.62 6.836 2.777 9.282.332 2.532-2.533 1.994-8.062-1-10.289-1.167-.867-2.374-1.26-3.532-1.286zm200.569.188a3.389 3.389 0 0 0-1.013.183c-5.432 1.922-7.12 8.024-3.095 11.189 5.677 4.465 13.82-.529 11.196-6.866-1.026-2.474-4.558-4.601-7.088-4.506zM97.608 71.257c-12.126.029-23.16 5.117-31.938 14.72-6.983 7.64-10.274 16.092-10.282 26.403-.006 6.845 1.41 11.155 4.836 14.732 3.009 3.141 4.658 2.92 7.231-.968 3.644-5.507 20.022-21.357 26.518-25.663 7.262-4.814 16.773-9.337 22.584-10.741 6.162-1.489 6.952-2.49 5.423-6.872-2.539-7.27-11.713-11.643-24.372-11.61zm104.46 0c-4.001-.01-9.116.543-11.46 1.239-7.836 2.327-13.783 8.121-13.783 13.427 0 1.79.556 2.256 3.584 3.008 8.141 2.022 20.762 8.23 28.042 13.795 7.18 5.488 15.973 13.762 21.355 20.094 3.09 3.636 6.04 6.612 6.556 6.612 1.619 0 5.434-4.088 6.747-7.231 1.87-4.479 2.418-12.913 1.18-18.169-1.6-6.786-4.477-11.87-10.149-17.934-9.474-10.128-19.59-14.809-32.072-14.84zm-52.885 24.62a78.512 78.512 0 0 0-12.015 1.048c-21.75 3.637-37.37 11.598-51.75 26.38-31.771 32.658-36.388 78.43-11.615 115.143 9.047 13.407 23.445 26.263 36.82 32.877 5.567 2.753 13.624 5.488 21.926 7.444 5.48 1.29 9.124 1.526 19.397 1.263 14.28-.366 20.85-1.767 33.135-7.07 29.953-12.93 51.315-41.077 56.288-74.168 2.581-17.17-1.063-37.014-9.779-53.245-9.736-18.13-27.745-34.98-45.139-42.233-12.088-5.04-24.992-7.583-37.268-7.439zm-.07 15.897c7.537-.019 15.64 1.004 21.809 2.944 13.902 4.37 23.213 10.16 33.332 20.72 9.6 10.021 16.21 22.053 19.846 36.126 1.596 6.176 1.788 8.672 1.429 18.554-.454 12.46-2.442 20.544-7.58 30.817-5.299 10.598-16.066 22.85-26.212 29.832-6.055 4.166-17.146 9.18-24.61 11.123-3.774.983-10.464 1.905-15.18 2.094-34.8 1.388-67.954-25.24-75.978-61.023-1.054-4.7-1.282-8.81-.962-17.289.48-12.68 1.892-18.963 6.508-28.932 10.846-23.42 29.286-38.048 55.184-43.775 3.575-.79 7.892-1.18 12.414-1.19zm1 12.598c-4.657 0-7.071 6.697-3.648 10.12.927.927 2.608 1.686 3.734 1.686 2.352 0 5.543-3.555 5.543-6.175 0-2.38-3.251-5.631-5.629-5.631zm12.664 29.935c-1.976-.126-3.939.414-5.313 1.657-.981.889-4.712 6.324-8.29 12.079-7.084 11.395-6.824 11.071-18.871 23.497-7.792 8.036-8.295 8.768-8.295 12.055 0 2.591.536 4.038 2.068 5.57 2.5 2.5 7.466 2.796 10.605.635 1.147-.79 6.037-5.249 10.868-9.91 4.83-4.66 9.48-9.136 10.33-9.948.852-.812 1.55-2.177 1.55-3.033 0-.855 2.928-6.074 6.509-11.596 7.523-11.601 8.218-14.67 4.223-18.665-1.422-1.422-3.41-2.214-5.384-2.34zm43.544 27.412c-4.817 0-7.197 7.176-3.4 10.25 2.49 2.016 4.36 1.965 7.103-.192 1.473-1.16 2.222-2.558 2.222-4.154 0-2.614-3.303-5.904-5.925-5.904zm-113.801.198c-.724-.02-1.402.156-2.194.517-4.22 1.923-4.329 8.546-.168 10.217 2.562 1.03 2.765 1.026 5.264-.113 4.154-1.893 3.882-8.201-.43-9.987-.978-.406-1.748-.616-2.472-.634zm57.307 57.61c-.918.097-1.854.522-2.809 1.273-2.929 2.303-3.117 6.832-.366 8.76 2.642 1.85 4.626 1.637 7.019-.757 2.441-2.441 2.631-4.685.595-7.04-1.43-1.653-2.91-2.399-4.44-2.237z"/>
</svg>
